<?xml version="1.0" encoding="UTF-8"?>
<svg width="140px" height="38px" viewBox="0 0 140 38" version="1.1" xmlns="http://www.w3.org/2000/svg" xmlns:xlink="http://www.w3.org/1999/xlink">
    <!-- Generator: Sketch 53.2 (72643) - https://sketchapp.com -->
    <title>Header_logo_MMM</title>
    <desc>Created with Sketch.</desc>
    <g id="Fitness-dla-umyslu" stroke="none" stroke-width="1" fill="none" fill-rule="evenodd">
        <g id="mmm_fitness_main" transform="translate(-115.000000, -26.000000)">
            <g id="Top_bar" transform="translate(115.000000, 26.000000)">
                <g id="Header_logo_MMM">
                    <path d="M7.43941521,34.193098 L0,34.193098 L6.50559593,30.0935581 L7.43941521,34.193098 Z M2.86233905,5.68434189e-14 L53.9869281,34.2926829 L10.6243685,34.2926829 L2.86233905,5.68434189e-14 Z M45.7825821,5.34293227 L44.3097781,24.0657555 L30.6350849,14.8894591 L45.7825821,5.34293227 Z" id="Emblem" fill="#FFCB4A"></path>
                    <path d="M68.6936949,11.2539139 C68.6936949,10.1670113 68.5556083,9.39713358 68.2794311,8.94425752 C68.0032538,8.49138146 67.529281,8.26494682 66.8574985,8.26494682 C66.6484995,8.26494682 66.4320395,8.27626855 66.208112,8.29891236 C65.9841844,8.32155616 65.7677244,8.34797353 65.5587254,8.37816527 L65.5587254,17.5715034 L62.2222222,17.5715034 L62.2222222,6.0685089 C62.5058637,5.99302956 62.8380179,5.91377743 63.2186947,5.83075015 C63.5993714,5.74772288 64.0024349,5.67224467 64.4278972,5.60431326 C64.8533594,5.53638185 65.2900115,5.4835471 65.7378665,5.44580743 C66.1857216,5.40806775 66.6261057,5.3891982 67.0590322,5.3891982 C67.9099568,5.3891982 68.6003896,5.49864161 69.1303513,5.71753171 C69.6603131,5.9364218 70.0969652,6.19682163 70.4403207,6.49873901 C70.9180327,6.15153403 71.4666469,5.87981246 72.0861797,5.68356617 C72.7057124,5.48731988 73.276719,5.3891982 73.7992165,5.3891982 C74.7397121,5.3891982 75.5122504,5.52128507 76.1168547,5.78546278 C76.721459,6.04964048 77.2028959,6.42325763 77.5611799,6.90632543 C77.9194639,7.38939323 78.1657805,7.96302763 78.300137,8.62724586 C78.4344935,9.29146409 78.5016707,10.0311506 78.5016707,10.8463275 L78.5016707,17.5715034 L75.1651675,17.5715034 L75.1651675,11.2539139 C75.1651675,10.1670113 75.027081,9.39713358 74.7509037,8.94425752 C74.4747264,8.49138146 74.0007537,8.26494682 73.3289711,8.26494682 C73.1498291,8.26494682 72.8997805,8.31023375 72.5788177,8.40080896 C72.257855,8.49138417 71.9928781,8.60460149 71.783879,8.74046431 C71.8883785,9.08766929 71.9555558,9.45373862 71.9854128,9.83868327 C72.0152698,10.2236279 72.0301981,10.6349842 72.0301981,11.0727644 L72.0301981,17.5715034 L68.6936949,17.5715034 L68.6936949,11.2539139 Z M84.6684678,15.2165596 C84.9968948,15.2165596 85.3103886,15.2090118 85.6089586,15.1939159 C85.9075286,15.1788201 86.146381,15.1561766 86.3255231,15.1259849 L86.3255231,12.5672479 C86.1911665,12.5370562 85.9896348,12.5068649 85.7209218,12.4766731 C85.4522088,12.4464814 85.2058922,12.4313858 84.9819647,12.4313858 C84.6684662,12.4313858 84.3736327,12.4502553 84.0974555,12.487995 C83.8212782,12.5257347 83.5786937,12.597439 83.3696947,12.70311 C83.1606957,12.8087811 82.9964847,12.9521897 82.8770567,13.1333402 C82.7576287,13.3144906 82.6979155,13.5409252 82.6979155,13.8126509 C82.6979155,14.3410063 82.8733228,14.7070756 83.2241426,14.9108698 C83.5749623,15.114664 84.0563992,15.2165596 84.6684678,15.2165596 Z M84.3997561,5.34391082 C85.3850371,5.34391082 86.2060924,5.45712814 86.8629464,5.68356617 C87.5198004,5.9100042 88.0460222,6.23456051 88.4416274,6.65724484 C88.8372327,7.07992916 89.1171379,7.593181 89.2813514,8.19701575 C89.4455649,8.8008505 89.5276704,9.47260659 89.5276704,10.2123042 L89.5276704,17.231848 C89.0499584,17.3375191 88.3856501,17.4620582 87.5347256,17.6054689 C86.683801,17.7488797 85.6537499,17.820584 84.4445414,17.820584 C83.6831879,17.820584 82.9927551,17.7526536 82.3732223,17.6167908 C81.7536895,17.4809279 81.2200036,17.2582672 80.7721486,16.9488019 C80.3242936,16.6393366 79.9809432,16.2355282 79.7420872,15.7373645 C79.5032312,15.2392008 79.383805,14.6278273 79.383805,13.9032256 C79.383805,13.2088156 79.5218915,12.6200856 79.7980688,12.1370178 C80.0742461,11.65395 80.4437209,11.2690111 80.9065044,10.9821896 C81.3692879,10.6953681 81.8992418,10.487803 82.4963818,10.3594881 C83.0935218,10.2311733 83.7130453,10.1670168 84.3549708,10.1670168 C84.7878973,10.1670168 85.1723005,10.1858863 85.5081917,10.223626 C85.844083,10.2613657 86.116524,10.3104265 86.3255231,10.37081 L86.3255231,10.0537983 C86.3255231,9.48015531 86.1538479,9.01973822 85.8104924,8.67253324 C85.4671368,8.32532826 84.8700058,8.15172837 84.0190812,8.15172837 C83.4517982,8.15172837 82.8919878,8.19324139 82.3396333,8.27626867 C81.7872788,8.35929594 81.3095739,8.47628717 80.9065044,8.62724586 L80.4810443,5.91000307 C80.6751148,5.84961959 80.9176993,5.78546311 81.2088051,5.71753171 C81.4999108,5.6496003 81.8171367,5.58921773 82.1604922,5.53638219 C82.5038477,5.48354665 82.8658584,5.43825972 83.2465352,5.40052005 C83.627212,5.36278037 84.0116151,5.34391082 84.3997561,5.34391082 Z M94.5300502,9.96322357 C94.8584773,9.60092272 95.1980956,9.22353166 95.5489153,8.83103907 C95.8997351,8.43854648 96.2393534,8.04983369 96.5677804,7.66488904 C96.8962074,7.27994439 97.2059691,6.91387506 97.4970749,6.56667008 C97.7881807,6.2194651 98.0382293,5.91755225 98.2472283,5.66092248 L102.210725,5.66092248 C101.419515,6.58177047 100.646977,7.46109164 99.8930873,8.29891236 C99.139198,9.13673307 98.3144107,10.0009586 97.4187007,10.8916149 C97.8665557,11.2992033 98.3293323,11.7860378 98.8070443,12.3521329 C99.2847563,12.9182279 99.7475329,13.5031841 100.195388,14.1070188 C100.643243,14.7108536 101.053771,15.3146793 101.426983,15.918514 C101.800196,16.5223488 102.113689,17.0733397 102.367474,17.5715034 L98.5383326,17.5715034 C98.2994766,17.1790108 98.0270356,16.7450111 97.7210013,16.2694912 C97.414967,15.7939713 97.090277,15.3184586 96.7469215,14.8429387 C96.403566,14.3674189 96.0415553,13.9107757 95.6608785,13.4729955 C95.2802017,13.0352153 94.9032628,12.6653721 94.5300502,12.3634547 L94.5300502,17.5715034 L91.193547,17.5715034 L91.193547,0.543448558 L94.5300502,0 L94.5300502,9.96322357 Z M101.435804,11.7067877 C101.435804,10.6500769 101.596283,9.72546878 101.917246,8.93293567 C102.238209,8.14040256 102.659933,7.47996821 103.18243,6.95161281 C103.704928,6.4232574 104.305791,6.02322288 104.985038,5.75149724 C105.664284,5.4797716 106.362181,5.34391082 107.078749,5.34391082 C108.750741,5.34391082 110.071894,5.86093657 111.042246,6.89500358 C112.012599,7.92907059 112.497768,9.44995656 112.497768,11.4577071 C112.497768,11.6539534 112.490304,11.8690663 112.475375,12.1030523 C112.460447,12.3370382 112.445519,12.5446033 112.43059,12.7257537 L104.861878,12.7257537 C104.936521,13.4201637 105.257479,13.9711546 105.824762,14.3787431 C106.392045,14.7863316 107.153387,14.9901227 108.108811,14.9901227 C108.720879,14.9901227 109.321742,14.9335141 109.911418,14.8202951 C110.501094,14.707076 110.982531,14.5674413 111.355743,14.4013868 L111.803596,17.1412733 C111.624454,17.2318485 111.385602,17.3224223 111.087032,17.4129976 C110.788462,17.5035728 110.456308,17.5828249 110.090559,17.6507563 C109.724811,17.7186877 109.332944,17.7752964 108.914946,17.820584 C108.496948,17.8658716 108.078956,17.888515 107.660958,17.888515 C106.601034,17.888515 105.679213,17.7300108 104.895467,17.4129976 C104.111721,17.0959843 103.462341,16.6619846 102.947308,16.1109854 C102.432274,15.5599862 102.051603,14.9070996 101.805283,14.1523062 C101.558963,13.3975128 101.435804,12.5823481 101.435804,11.7067877 Z M109.273228,10.4160974 C109.2583,10.1292759 109.209783,9.85000647 109.127676,9.57828084 C109.045569,9.3065552 108.918679,9.06502492 108.747001,8.85368276 C108.575323,8.6423406 108.358863,8.46874071 108.097614,8.33287789 C107.836366,8.19701507 107.511676,8.12908468 107.123535,8.12908468 C106.750322,8.12908468 106.429364,8.19324116 106.160651,8.32155605 C105.891938,8.44987093 105.668014,8.61969691 105.488872,8.83103907 C105.30973,9.04238123 105.171643,9.28768542 105.074608,9.56695899 C104.977573,9.84623256 104.906664,10.1292759 104.861878,10.4160974 L109.273228,10.4160974 Z M68.6936949,27.4933279 C68.6936949,26.4064253 68.5556083,25.6365476 68.2794311,25.1836715 C68.0032538,24.7307954 67.529281,24.5043608 66.8574985,24.5043608 C66.6484995,24.5043608 66.4320395,24.5156825 66.208112,24.5383263 C65.9841844,24.5609701 65.7677244,24.5873875 65.5587254,24.6175793 L65.5587254,33.8109174 L62.2222222,33.8109174 L62.2222222,22.3079229 C62.5058637,22.2324435 62.8380179,22.1531914 63.2186947,22.0701641 C63.5993714,21.9871369 64.0024349,21.9116586 64.4278972,21.8437272 C64.8533594,21.7757958 65.2900115,21.7229611 65.7378665,21.6852214 C66.1857216,21.6474817 66.6261057,21.6286122 67.0590322,21.6286122 C67.9099568,21.6286122 68.6003896,21.7380556 69.1303513,21.9569457 C69.6603131,22.1758358 70.0969652,22.4362356 70.4403207,22.738153 C70.9180327,22.390948 71.4666469,22.1192264 72.0861797,21.9229802 C72.7057124,21.7267339 73.276719,21.6286122 73.7992165,21.6286122 C74.7397121,21.6286122 75.5122504,21.7606991 76.1168547,22.0248768 C76.721459,22.2890545 77.2028959,22.6626716 77.5611799,23.1457394 C77.9194639,23.6288072 78.1657805,24.2024416 78.300137,24.8666598 C78.4344935,25.5308781 78.5016707,26.2705645 78.5016707,27.0857415 L78.5016707,33.8109174 L75.1651675,33.8109174 L75.1651675,27.4933279 C75.1651675,26.4064253 75.027081,25.6365476 74.7509037,25.1836715 C74.4747264,24.7307954 74.0007537,24.5043608 73.3289711,24.5043608 C73.1498291,24.5043608 72.8997805,24.5496477 72.5788177,24.6402229 C72.257855,24.7307982 71.9928781,24.8440155 71.783879,24.9798783 C71.8883785,25.3270833 71.9555558,25.6931526 71.9854128,26.0780973 C72.0152698,26.4630419 72.0301981,26.8743982 72.0301981,27.3121784 L72.0301981,33.8109174 L68.6936949,33.8109174 L68.6936949,27.4933279 Z M90.2666275,21.9003365 C89.594845,24.1949085 88.893216,26.3460375 88.1617194,28.3537881 C87.4302229,30.3615386 86.6315601,32.3088765 85.7657071,34.1958601 C85.4522086,34.8751742 85.1387148,35.4525825 84.8252162,35.9281024 C84.5117177,36.4036222 84.1683674,36.7961089 83.7951549,37.1055742 C83.4219423,37.4150396 83.0002185,37.6414742 82.5299708,37.7848849 C82.059723,37.9282957 81.5111088,38 80.8841118,38 C80.3616143,38 79.8801773,37.9509392 79.4397866,37.852816 C78.9993958,37.7546929 78.6373851,37.6452495 78.3537436,37.5244825 L78.9359522,34.8298834 C79.2793077,34.9506504 79.5853374,35.0336764 79.8540504,35.078964 C80.1227634,35.1242516 80.4064007,35.1468951 80.7049707,35.1468951 C81.3021107,35.1468951 81.7611552,34.9846169 82.082118,34.6600557 C82.4030807,34.3354946 82.6755218,33.8863992 82.8994493,33.3127562 C82.1380958,31.8031693 81.3767537,30.1086835 80.6154001,28.2292478 C79.8540466,26.3498121 79.1374893,24.2401961 78.4657068,21.9003365 L82.0037437,21.9003365 C82.1530287,22.4890753 82.328436,23.1268662 82.5299708,23.8137283 C82.7315055,24.5005903 82.9442335,25.1949898 83.168161,25.8969477 C83.3920885,26.5989056 83.6197447,27.2819834 83.8511365,27.9462017 C84.0825282,28.6104199 84.3027203,29.2142456 84.5117193,29.7576969 C84.7057898,29.2142456 84.9073215,28.6104199 85.1163206,27.9462017 C85.3253196,27.2819834 85.5305834,26.5989056 85.7321181,25.8969477 C85.9336529,25.1949898 86.1277205,24.5005903 86.3143267,23.8137283 C86.500933,23.1268662 86.6688761,22.4890753 86.8181611,21.9003365 L90.2666275,21.9003365 Z M101.189485,27.4933279 C101.189485,26.4064253 101.051399,25.6365476 100.775222,25.1836715 C100.499044,24.7307954 100.025071,24.5043608 99.353289,24.5043608 C99.1442899,24.5043608 98.9278299,24.5156825 98.7039024,24.5383263 C98.4799749,24.5609701 98.2635149,24.5873875 98.0545159,24.6175793 L98.0545159,33.8109174 L94.7180127,33.8109174 L94.7180127,22.3079229 C95.0016542,22.2324435 95.3338084,22.1531914 95.7144851,22.0701641 C96.0951619,21.9871369 96.4982254,21.9116586 96.9236876,21.8437272 C97.3491499,21.7757958 97.785802,21.7229611 98.233657,21.6852214 C98.681512,21.6474817 99.1218962,21.6286122 99.5548227,21.6286122 C100.405747,21.6286122 101.09618,21.7380556 101.626142,21.9569457 C102.156104,22.1758358 102.592756,22.4362356 102.936111,22.738153 C103.413823,22.390948 103.962437,22.1192264 104.58197,21.9229802 C105.201503,21.7267339 105.77251,21.6286122 106.295007,21.6286122 C107.235503,21.6286122 108.008041,21.7606991 108.612645,22.0248768 C109.217249,22.2890545 109.698686,22.6626716 110.05697,23.1457394 C110.415254,23.6288072 110.661571,24.2024416 110.795927,24.8666598 C110.930284,25.5308781 110.997461,26.2705645 110.997461,27.0857415 L110.997461,33.8109174 L107.660958,33.8109174 L107.660958,27.4933279 C107.660958,26.4064253 107.522871,25.6365476 107.246694,25.1836715 C106.970517,24.7307954 106.496544,24.5043608 105.824762,24.5043608 C105.64562,24.5043608 105.395571,24.5496477 105.074608,24.6402229 C104.753645,24.7307982 104.488669,24.8440155 104.27967,24.9798783 C104.384169,25.3270833 104.451346,25.6931526 104.481203,26.0780973 C104.51106,26.4630419 104.525989,26.8743982 104.525989,27.3121784 L104.525989,33.8109174 L101.189485,33.8109174 L101.189485,27.4933279 Z M115.999841,33.8109174 L112.663338,33.8109174 L112.663338,21.9003365 L115.999841,21.9003365 L115.999841,33.8109174 Z M116.313338,18.4584956 C116.313338,19.0774262 116.115538,19.5642607 115.719933,19.9190136 C115.324328,20.2737665 114.857819,20.4511403 114.320393,20.4511403 C113.782967,20.4511403 113.316458,20.2737665 112.920853,19.9190136 C112.525248,19.5642607 112.327448,19.0774262 112.327448,18.4584956 C112.327448,17.839565 112.525248,17.3527305 112.920853,16.9979776 C113.316458,16.6432247 113.782967,16.4658509 114.320393,16.4658509 C114.857819,16.4658509 115.324328,16.6432247 115.719933,16.9979776 C116.115538,17.3527305 116.313338,17.839565 116.313338,18.4584956 Z M117.777681,22.3079229 C118.344964,22.1418683 119.076449,21.987138 119.972159,21.8437272 C120.867869,21.7003165 121.808351,21.6286122 122.793632,21.6286122 C123.793841,21.6286122 124.626093,21.7606991 125.290411,22.0248768 C125.954729,22.2890545 126.480951,22.6626716 126.869092,23.1457394 C127.257233,23.6288072 127.533406,24.2024416 127.69762,24.8666598 C127.861833,25.5308781 127.943939,26.2705645 127.943939,27.0857415 L127.943939,33.8109174 L124.607436,33.8109174 L124.607436,27.4933279 C124.607436,26.4064253 124.465617,25.6365476 124.181976,25.1836715 C123.898334,24.7307954 123.36838,24.5043608 122.592098,24.5043608 C122.353242,24.5043608 122.099461,24.5156825 121.830748,24.5383263 C121.562035,24.5609701 121.323183,24.5873875 121.114184,24.6175793 L121.114184,33.8109174 L117.777681,33.8109174 L117.777681,22.3079229 Z M132.453681,27.7650522 C132.453681,28.8066671 132.685069,29.6444752 133.147852,30.2785017 C133.610636,30.9125282 134.297337,31.2295367 135.207975,31.2295367 C135.506545,31.2295367 135.782718,31.218215 136.036503,31.1955712 C136.290287,31.1729274 136.499283,31.14651 136.663497,31.1163183 L136.663497,24.9798783 C136.454498,24.8440155 136.182057,24.7307982 135.846165,24.6402229 C135.510274,24.5496477 135.170656,24.5043608 134.8273,24.5043608 C133.244879,24.5043608 132.453681,25.5912471 132.453681,27.7650522 Z M140,33.4259746 C139.70143,33.5165498 139.35808,33.6033498 138.969939,33.6863771 C138.581798,33.7694043 138.175002,33.8411086 137.74954,33.9014921 C137.324078,33.9618756 136.891157,34.0109364 136.450767,34.0486761 C136.010376,34.0864158 135.588652,34.1052853 135.185583,34.1052853 C134.21523,34.1052853 133.34939,33.9618767 132.588037,33.6750552 C131.826683,33.3882337 131.184767,32.9768775 130.66227,32.4409741 C130.139772,31.9050708 129.740441,31.2559582 129.464263,30.4936168 C129.188086,29.7312754 129.05,28.8745977 129.05,27.923558 C129.05,26.9574224 129.169426,26.085649 129.408282,25.3082118 C129.647138,24.5307746 129.990488,23.8703402 130.438343,23.3268889 C130.886198,22.7834377 131.434812,22.3683075 132.084202,22.081486 C132.733592,21.7946645 133.476274,21.6512559 134.31227,21.6512559 C134.775053,21.6512559 135.189313,21.6965428 135.555061,21.787118 C135.920809,21.8776932 136.290284,22.0060062 136.663497,22.1720607 L136.663497,16.7828625 L140,16.239414 L140,33.4259746 Z" id="Make_My_Mind" fill="#313131"></path>
                </g>
            </g>
        </g>
    </g>
</svg>