<?xml version="1.0" encoding="UTF-8"?>
<svg width="251px" height="186px" viewBox="0 0 251 186" version="1.1" xmlns="http://www.w3.org/2000/svg" xmlns:xlink="http://www.w3.org/1999/xlink">
    <!-- Generator: Sketch 53.2 (72643) - https://sketchapp.com -->
    <title>illustration_testimonial</title>
    <desc>Created with Sketch.</desc>
    <g id="Fitness-dla-umyslu" stroke="none" stroke-width="1" fill="none" fill-rule="evenodd">
        <g id="mmm_fitness_main" transform="translate(-304.000000, -1366.000000)">
            <g id="section_3" transform="translate(0.000000, 1167.000000)">
                <g id="illustration_testimonial" transform="translate(304.000000, 199.000000)">
                    <path d="M184.096879,52.0229441 C186.694714,50.6791632 189.783343,50.6791632 192.381177,52.0229441 L201.585952,57.3521058 L206.917051,54.246623 C207.919312,53.7470416 209.098108,53.7470416 210.100369,54.246623 L223.29388,61.9144816 C223.702981,62.0337594 223.984238,62.4086325 223.984238,62.8346246 C223.984238,63.2606168 223.702981,63.6354898 223.29388,63.7547676 L217.924428,66.8602504 L226.899084,72.0743942 C227.926118,72.4227576 228.617028,73.3864462 228.617028,74.4706 C228.617028,75.5547538 227.926118,76.5184424 226.899084,76.8668058 L217.080657,82.5410211 L248.875485,101.02056 C250.177249,101.669121 251,102.99797 251,104.451927 C251,105.905884 250.177249,107.234733 248.875485,107.883294 L115.94319,184.561879 C112.212126,186.479374 107.784752,186.479374 104.053688,184.561879 L3.18469357,126.056118 C1.84309034,125.416686 0.991847436,124.059972 1.00005888,122.574241 C1.00827033,121.08851 1.87445756,119.741281 3.2230468,119.116706 L136.155342,42.4381209 C139.886406,40.5206264 144.313779,40.5206264 148.044843,42.4381209 L174.278452,57.773838 L184.096879,52.0229441 Z" id="Path" fill="#ECF5FF"></path>
                    <polygon id="Path" fill="#F4B300" points="132 38.0590989 236.245668 99 245 93.9409011 140.715936 33"></polygon>
                    <path d="M221.021538,67.6846847 L225.230769,64.5615616 C226.123076,63.9822112 227.047858,63.4607296 228,63 L228,67.2162162 C227.912201,68.2952153 227.275339,69.2379177 226.338462,69.6756757 L221.575385,72.5645646 L216,76 L216,71.7837838 L221.021538,67.6846847 Z" id="Path" fill="#CDDFF2"></path>
                    <path d="M214.678571,49.9226804 C214.85159,50.020581 214.970203,50.1936768 215,50.3917526 C215,50.8247423 215,53.2061856 215,54 C214.986329,53.8239 214.875897,53.6704907 214.714286,53.6030928 L209.285714,50.3917526 L209,48.2989691 L209.285714,47 L214.678571,49.9226804 Z" id="Path" fill="#DAEAFA"></path>
                    <path d="M2.67219141,114.16496 L97.3926828,169.358781 C106.941119,173.527266 111.63895,175.032552 115,173.218489 L114.809031,176.576435 C111.588621,178.193717 107.862309,178.443835 104.458526,177.271182 C103.327547,176.805971 102.240893,176.237528 101.212057,175.572911 L2.48122267,117.329921 C1.19865395,116.708394 0.289371413,115.502358 0.0368228935,114.087766 C-0.0122742978,113.213603 -0.0122742978,112.337329 0.0368228935,111.463165 L0.0368228935,111 L2.67219141,114.16496 Z" id="Path" fill="#CDDFF2"></path>
                    <path d="M247.553101,96.1081831 C248.845699,95.5616408 249.769199,94.3885614 250,93 L250,95.7628294 C249.859005,97.2911823 248.909611,98.6251955 247.514868,99.2547388 L115,176 L115,172.853444 L247.553101,96.1081831 Z" id="Path" fill="#CDDFF2"></path>
                    <path d="M2.26410167,107.077574 L135.174008,30.4098918 C138.913401,28.5300361 143.322114,28.5300361 147.061507,30.4098918 L247.83682,88.9840009 C249.159746,89.6245074 250,90.9646239 250,92.4340466 C250,93.9034693 249.159746,95.2435858 247.83682,95.8840923 L114.773526,172.590108 C111.034133,174.469964 106.62542,174.469964 102.886027,172.590108 L2.2257549,114.054333 C0.861847066,113.424113 -0.00819746434,112.055655 5.82404515e-05,110.553623 C0.00831394524,109.051591 0.893348568,107.692773 2.26410167,107.077574 Z" id="Path" fill="#F4F8FF"></path>
                    <path d="M207.603774,47.1441768 C208.047656,46.9519411 208.556117,46.9519411 209,47.1441768 L209,50.5505005 C208.553292,50.3713253 208.050482,50.3713253 207.603774,50.5505005 L205,52 L205,48.3762513 L207.603774,47.1441768 Z" id="Path" fill="#CDDFF2"></path>
                    <path d="M220.66879,51.2253521 C221.127389,50.9624413 223,51.2253521 223,51 L223,55.056338 C222.958438,55.4476801 222.712168,55.7893696 222.350318,55.9577465 L217,59 L217,54.943662 L220.66879,51.2253521 Z" id="Path" fill="#CDDFF2"></path>
                    <path d="M212.7578,52.1416825 L215.382956,50.6498481 C215.54942,50.5768787 215.657044,50.4116563 215.657044,50.2290743 C215.657044,50.0464922 215.54942,49.8812698 215.382956,49.8083004 L209.600003,46.4421099 C209.158972,46.2108001 208.633342,46.2108001 208.192311,46.4421099 L205.567155,47.9339443 L212.7578,52.1416825 L212.7578,52.1416825 Z M183.728899,39.977494 C186.314834,38.6741687 189.360844,38.6741687 191.946779,39.977494 L201.077757,45.2945449 L206.366115,42.2343717 C207.360341,41.7359255 208.529686,41.7359255 209.523912,42.2343717 L222.611647,49.8848048 C223.486699,50.3820829 223.448653,51.1853784 222.611647,51.7209087 L217.285243,54.7810819 L226.264038,59.9833764 C227.301336,60.334386 228,61.3119791 228,62.4123889 C228,63.5127987 227.301336,64.4903918 226.264038,64.8414014 L215.61123,71 L173,46.1743447 L183.728899,39.977494 Z" id="Shape" fill="#F4F8FF"></path>
                    <polygon id="Path" fill="#DAEAFA" points="97 61.5609756 128.64742 80 159 62.4390244 127.314496 44"></polygon>
                    <polygon id="Path" fill="#DAEAFA" points="59 83.5609756 90.6855037 102 121 84.4390244 89.3525799 66"></polygon>
                    <polygon id="Path" fill="#DAEAFA" points="20 105.560976 51.6855037 124 82 106.439024 50.3525799 88"></polygon>
                    <polygon id="Path" fill="#1AC2CB" points="36 111.757161 51.7792208 84 57 88.4396015 40.7142857 115"></polygon>
                    <path d="M163.598733,69.6662945 C162.800422,70.1318005 162.800422,70.8688516 163.598733,71.3343576 L211.345301,99.6526392 C212.241482,100.115787 213.300228,100.115787 214.19641,99.6526392 L216.401267,98.3337055 C217.199578,97.8681995 217.199578,97.1311484 216.401267,96.6656424 L168.654699,68.3473608 C167.758518,67.8842131 166.699772,67.8842131 165.80359,68.3473608 L163.598733,69.6662945 Z" id="Path" fill="#F4B300"></path>
                    <path d="M144.449558,80.6962245 L146.12499,79.690042 C146.808535,79.3445352 147.611889,79.3445352 148.295435,79.690042 L181.727907,99.4266975 C182.01664,99.4994837 182.219392,99.7629001 182.219392,100.065236 C182.219392,100.367573 182.01664,100.630989 181.727907,100.703775 L180.052476,101.709958 C179.355743,102.05632 178.540684,102.05632 177.843952,101.709958 L144.41148,81.9733022 C144.161573,81.8625686 144,81.6118379 144,81.3347633 C144,81.0576887 144.161573,80.806958 144.41148,80.6962245 L144.449558,80.6962245 Z M182.527545,86.3463258 C182.727954,86.2425739 182.878896,86.0612777 182.946402,85.8432346 C182.984121,85.730301 182.984121,85.6078743 182.946402,85.4949407 C182.86428,85.2952775 182.716133,85.131026 182.527545,85.0305488 L160.937326,72.2597717 C160.240594,71.9134094 159.425535,71.9134094 158.728803,72.2597717 L158.043399,72.6854643 L157.053372,73.2659542 C156.79785,73.3675862 156.62089,73.6073826 156.596436,73.8851433 C156.623621,74.1711083 156.797347,74.4212363 157.053372,74.5430319 L178.681668,87.313809 C179.195439,87.5930664 179.794776,87.6622842 180.357099,87.5073056 L180.852113,87.313809 L182.527545,86.3463258 Z M151.151284,76.826292 C150.862551,76.8990782 150.659799,77.1624946 150.659799,77.4648309 C150.659799,77.7671671 150.862551,78.0305836 151.151284,78.1033697 L199.662638,106.74087 C200.346184,107.086377 201.149538,107.086377 201.833084,106.74087 L203.508515,105.773387 C203.797248,105.700601 204,105.437184 204,105.134848 C204,104.832512 203.797248,104.569095 203.508515,104.496309 L155.035239,75.7814102 C154.338506,75.435048 153.523447,75.435048 152.826715,75.7814102 L151.151284,76.826292 Z" id="Shape" fill="#DAEAFA"></path>
                    <path d="M105.411742,102.714855 C105.161676,102.825834 105,103.07712 105,103.354809 C105,103.632498 105.161676,103.883784 105.411742,103.994763 L138.865444,123.775161 C139.562619,124.122291 140.378196,124.122291 141.07537,123.775161 L142.751866,122.805533 C143.02754,122.707878 143.212289,122.443309 143.212289,122.146187 C143.212289,121.849064 143.02754,121.584496 142.751866,121.48684 L109.298163,101.706442 C108.614183,101.36017 107.810319,101.36017 107.126339,101.706442 L105.449844,102.714855 L105.411742,102.714855 Z M118.061661,95.2681169 L119.738157,94.2597044 C120.422136,93.9134319 121.226,93.9134319 121.90998,94.2597044 L143.552011,107.058785 C144.161646,107.407851 144.161646,107.989628 143.552011,108.377478 L141.875516,109.347106 C141.191536,109.693378 140.387672,109.693378 139.703692,109.347106 L118.061661,96.548025 C117.772745,96.4750775 117.569864,96.2110772 117.569864,95.9080709 C117.569864,95.6050646 117.772745,95.3410643 118.061661,95.2681169 L118.061661,95.2681169 Z M112.117723,98.7587753 L113.794218,97.7503629 C114.478198,97.4040903 115.282062,97.4040903 115.966042,97.7503629 L164.508203,126.490117 C164.797119,126.563065 165,126.827065 165,127.130071 C165,127.433077 164.797119,127.697078 164.508203,127.770025 L162.831708,128.739653 C162.134533,129.086782 161.318957,129.086782 160.621782,128.739653 L112.117723,100.038683 C111.828807,99.9657359 111.625926,99.7017357 111.625926,99.3987293 C111.625926,99.095723 111.828807,98.8317228 112.117723,98.7587753 L112.117723,98.7587753 Z" id="Shape" fill="#DAEAFA"></path>
                    <path d="M124.598733,91.6662688 C123.800422,92.1317676 123.800422,92.8688074 124.598733,93.3343063 L172.307286,121.652152 C173.2167,122.115949 174.286995,122.115949 175.19641,121.652152 L177.401267,120.37203 C178.199578,119.867739 178.199578,119.1307 177.401267,118.665201 L129.654699,90.3473555 C128.758518,89.8842148 127.699772,89.8842148 126.80359,90.3473555 L124.598733,91.6662688 Z" id="Path" fill="#F4B300"></path>
                    <path d="M57.4668291,127.465707 C57.187319,127.560995 57,127.819148 57,128.109067 C57,128.398985 57.187319,128.657139 57.4668291,128.752427 L91.4632178,148.053223 C92.1567132,148.391099 92.9717612,148.391099 93.6652566,148.053223 L95.4037083,147.06926 C95.6572532,146.960972 95.8211783,146.715779 95.8211783,146.444823 C95.8211783,146.173867 95.6572532,145.928674 95.4037083,145.820385 L61.4845842,126.51959 C60.7910888,126.181713 59.9760408,126.181713 59.2825454,126.51959 L57.5440937,127.465707 L57.4668291,127.465707 Z M70.3313717,120.199525 L72.0311911,119.253408 C72.7246865,118.915531 73.5397345,118.915531 74.2332299,119.253408 L96.1763535,131.742158 C96.469289,131.813337 96.6749926,132.070936 96.6749926,132.366595 C96.6749926,132.662255 96.469289,132.919854 96.1763535,132.991033 L94.4765341,133.974995 C93.7696601,134.313708 92.942737,134.313708 92.235863,133.974995 L70.3313717,121.486245 C69.7132555,121.145642 69.7132555,120.577972 70.3313717,120.199525 L70.3313717,120.199525 Z M64.4206359,123.643393 L66.1204553,122.65943 C66.7793081,122.285276 67.5774119,122.22943 68.2838619,122.508052 L117.501361,150.513128 C117.794296,150.584307 118,150.841906 118,151.137565 C118,151.433225 117.794296,151.690824 117.501361,151.762003 L115.801541,152.745965 C115.094668,153.084678 114.267744,153.084678 113.56087,152.745965 L64.4206359,124.892268 C64.1277004,124.821089 63.9219968,124.56349 63.9219968,124.26783 C63.9219968,123.97217 64.1277004,123.714571 64.4206359,123.643393 L64.4206359,123.643393 Z" id="Shape" fill="#DAEAFA"></path>
                    <path d="M76.6831881,164.596778 L43.4379341,145.886264 C39.5974018,143.799585 35.0398488,143.42548 30.9034706,144.857376 C27.5480912,146.572189 21.9943597,150.116136 19.5646021,151.487986 C17.1348446,152.859836 11.2725724,156.365676 15.4764386,158.537772 C27.3166857,164.863527 39.04123,172.027634 51.0357474,178.505816 C53.8866402,179.773676 57.0338841,180.24803 60.1376963,179.877666 C63.5857271,179.607106 66.9370757,178.620202 69.9724292,176.981538 L75.8732689,173.590019 C77.9528718,172.681418 79.4806435,170.861524 80,168.674222 C79.9228648,167.07373 78.8815402,165.587559 76.6831881,164.596778 Z" id="Path" fill="#ECF5FF"></path>
                    <path d="M41.6560104,152.193796 C42.8738369,152.193796 45.4617182,150.676203 49.724111,150.053601 C51.3605653,149.820125 53.5298188,150.287077 52.8828485,152.699661 C51.7144984,155.783492 49.3217244,158.215916 46.2989739,159.392635 C45.1397009,159.679943 43.9963442,160.030661 42.8738369,160.443276 C41.960467,160.910228 41.7321245,161.649568 41.0851542,162.11652 C39.7799334,163.034163 38.1218826,163.251513 36.632476,162.70021 C35.3030738,162.416666 34.3313745,161.246848 34.2729371,159.859587 C33.909021,158.023412 33.909021,156.131253 34.2729371,154.295079 C34.8437933,151.649019 40.9329259,151.415544 41.6560104,152.193796 Z" id="Path" fill="#001F33"></path>
                    <path d="M34.3827751,154.060899 C34.6595264,151.063407 34.5308437,148.04369 34,145.078558 L42,143 C41.3057599,146.256625 41.3057599,149.616527 42,152.873151 C41.5023923,155.879637 35.8755981,157.51279 34.3827751,154.060899 Z" id="Path" fill="#F0B186"></path>
                    <path d="M33.0922456,146.499622 C35.1194852,149.398279 42.2744488,147.804017 42.9899452,144.216929 C43.3874432,141.898004 31.8600018,143.021233 33.0922456,146.499622 Z" id="Path" fill="#00101A"></path>
                    <path d="M33.9468932,147.885917 C32.7676865,139.279875 32.68954,130.561909 33.714288,121.936668 C34.732236,119.342044 35.4223183,116.633759 35.768967,113.87291 C36.0675393,109.536226 35.7807385,105.17966 34.9160814,100.917394 C34.3229179,97.6831608 33.934492,94.4156743 33.7530556,91.1338773 C33.7047125,86.1558419 34.8749804,81.2397411 37.1645981,76.8025541 L45.5771518,76 C46.0423621,77.9872768 47.0503178,85.9746009 47.4379931,89.7198534 C48.0993268,96.0694156 48.1771786,102.464906 47.6705983,108.828284 C46.8564802,121.286981 42.9797273,130.573679 42.6308196,145.936857 C42.7083546,149.873194 35.2649892,149.414591 33.9468932,147.885917 Z" id="Path" fill="#001F33"></path>
                    <path d="M33.31942,150.555006 C33.31942,149.80433 33.079855,148.565713 33,147.176962 C33.9981876,149.729262 41.784051,149.466525 42.9818761,145 C42.9818761,145.863278 42.9818761,146.839157 42.9818761,147.890104 C43.4210787,151.268149 35.7549978,153.670313 33.31942,150.555006 Z" id="Path" fill="#043150"></path>
                    <path d="M43.0915884,154.478156 C44.5847451,155.765537 46.6668053,156.280235 48.6497878,155.852176 C50.6327703,155.424117 52.2585884,154.109014 52.9900184,152.34142 C53.3859556,149.873122 41.8641831,150.94149 43.0915884,154.478156 Z" id="Path" fill="#00101A"></path>
                    <path d="M51.6945236,159.357583 C54.3193915,158.412153 57.001667,157.64336 59.7242431,157.056108 C61.3606315,156.82206 63.5297974,157.251148 62.8828532,159.669648 C61.7529343,162.786565 59.3465509,165.238921 56.2992443,166.379033 C55.1400181,166.667045 53.9967075,167.018623 52.8742454,167.43225 C51.9609124,167.900347 51.7706347,168.6415 51.0856349,169.148605 C49.7696122,170.043196 48.1179194,170.245781 46.6331364,169.694717 C45.3239177,169.402114 44.3616659,168.256691 44.2736927,166.886137 C43.9087691,165.032433 43.9087691,163.122682 44.2736927,161.268978 C44.8825814,158.772462 50.9334127,158.538414 51.6945236,159.357583 Z" id="Path" fill="#043150"></path>
                    <path d="M44.2731707,161.077325 C44.5915284,158.065466 44.4997154,155.027214 44,152.037635 L52,150 C51.2683239,153.248194 51.2683239,156.60655 52,159.854744 C51.5317073,162.855625 45.9512195,164.522781 44.2731707,161.077325 Z" id="Path" fill="#F0B186"></path>
                    <path d="M44.798748,81.0005332 L53.8615884,80 C55.651309,84.5408813 57.8979795,84.8487377 58.2787711,90.2747061 C59.596147,100.324617 59.1059374,110.532383 56.831763,120.406147 C54.7754883,131.37353 51.9957095,141.109488 52.3765011,152.423209 C52.6430553,156.694716 45.6745688,156.502306 43.7706107,155.116952 C42.8950876,147.312753 42.5896278,139.453978 42.8567108,131.604423 C43.0851858,127.371398 45.027223,123.369265 45.3318563,119.674989 C45.052077,111.374407 43.4446592,103.174312 40.5719611,95.3928181 C39.0228223,90.1728192 40.6825764,84.5213267 44.798748,81.0005332 L44.798748,81.0005332 Z" id="Path" fill="#043150"></path>
                    <path d="M43.31942,157.528665 C43.31942,156.781548 43.1197825,155.548805 43,154.166639 C44.59917,155.221581 46.6033903,155.588208 48.5094853,155.174477 C50.4155803,154.760745 52.0425301,153.605945 52.9818761,152 C52.9818761,152.859184 52.9818761,153.867792 52.9818761,154.8764 C53.4210787,158.238426 45.7549978,160.703911 43.31942,157.528665 Z" id="Path" fill="#0A4369"></path>
                    <path d="M19.158148,35.1423427 C19.3471507,34.6009455 19.5361533,34.020877 19.6873555,33.4021373 C20.5945683,29.535014 24.752627,25.6678907 27.4364649,21.3367127 C27.8562282,20.7395803 28.1992423,20.0897376 28.4570793,19.4031511 C28.4588725,18.1063726 28.5727173,16.8122948 28.7972841,15.5360278 C29.4081509,14.1196234 30.341327,12.8732474 31.5189226,11.9009319 C32.7285397,11.088836 36.6597952,8.84590453 37,10.7407949 C36.6801352,13.1502108 36.0444077,15.5045533 35.1099733,17.740288 C34.2783616,19.3644798 33.1821461,20.3312606 32.6151381,21.6074113 C30.4227071,25.4745346 30.0825023,32.1646578 26.945058,35.7997537 C25.5086377,37.5012879 24.9038291,40.2856167 23.1650046,39.9762468 C21.8311626,39.8574791 20.6024411,39.1870663 19.7629565,38.1200277 C19.0437267,37.3155744 18.8117216,36.1733316 19.158148,35.1423427 Z" id="Path" fill="#E7A376"></path>
                    <polygon id="Path" fill="#F8C628" points="26 18.9022356 95.0901034 125 104 113.028028 44.7415066 10"></polygon>
                    <polygon id="Path" fill="#DAEAFA" points="106 144 96 125.105131 104.689139 113"></polygon>
                    <polygon id="Path" fill="#D2E3F4" points="106 144 95.5765766 125 80 126.365503"></polygon>
                    <polygon id="Path" fill="#F4B300" points="22 24.3638658 81.1923276 127 96 125.356293 36.8076724 22.7201587 28.7900467 21"></polygon>
                    <polygon id="Path" fill="#FFD44C" points="15 13.6704 21.0155239 24 35.996119 22.3488 45 10.368 38.9844761 0 24.003881 1.6512"></polygon>
                    <path d="M27.3173148,8.04103337 C24.513866,9.60841189 23.3123879,12.4073021 24.3937182,14.2732289 C26.2363361,16.283343 29.4531991,16.5798014 31.6826852,14.9449626 C34.486134,13.377584 35.6876121,10.5786938 34.6062818,8.71276702 C32.7535321,6.72081236 29.552919,6.42585156 27.3173148,8.04103337 Z" id="Path" fill="#F4B300"></path>
                    <path d="M105.540146,138 L107,146 L102,140.912442 C103.752446,141.02613 105.295618,139.756577 105.540146,138 Z" id="Path" fill="#F4B300"></path>
                    <path d="M24.2616392,41.8510108 C23.8869897,41.8522263 23.5161875,41.7723037 23.1727589,41.6163141 C21.476785,41.123114 20.0942899,39.8419812 19.426446,38.1446747 C18.758602,36.4473682 18.88019,34.5239414 19.7559276,32.9325339 C20.4877303,31.7896048 21.6955923,31.0749271 23.0126821,31.0055507 C24.3297718,30.9361744 25.6006697,31.5202859 26.4393998,32.5804888 C26.6124974,32.8010061 26.7055478,33.0779704 26.702233,33.3628113 L27.6784705,33.9495532 C31.4332302,36.335637 42.171843,43.3765398 40.8952247,47.4055009 C40.5807193,48.8967305 39.5731008,50.1263617 38.2087394,50.6839105 C36.8443779,51.2414594 35.3029815,51.0534878 34.0991096,50.1827459 C30.5093005,47.8291407 27.2061252,45.0315535 24.2616392,41.8510108 L24.2616392,41.8510108 Z" id="Path" fill="#1B8DA9"></path>
                    <path d="M37.5690936,44.3137633 C35.0941447,45.3481639 33.3819545,47.6604983 33.1080343,50.3384798 C32.7773028,54.4757163 33.2074974,58.6387523 34.3771287,62.6196325 C35.4154787,67.5243696 34.3771287,72.9311664 35.6846806,79.2262227 C35.6846806,80.3075821 35.4154787,81.0027417 35.2616491,81.8910011 C36.953775,89.6149966 51.6445048,94.5583537 58.3360938,87.8384776 C58.3360938,86.8729782 58.3360938,85.9847187 58.3360938,85.1736992 C59.8359327,80.8482618 58.3360938,76.7545442 59.4129012,72.4677267 C60.720453,66.1726704 63.258642,60.3410539 61.2588568,55.5135567 C60.7897776,54.446431 60.0128012,53.5450952 59.0283271,52.9260183 C56.1726958,51.09374 53.2056764,49.4427274 50.1446659,47.9826612 L50.1446659,48.253001 C47.0796943,46.2871976 43.6956118,44.8755595 40.1457399,44.0820435 C39.2820035,43.9193888 38.3903078,43.9995798 37.5690936,44.3137633 Z" id="Path" fill="#1B8DA9"></path>
                    <path d="M50.3780488,44.9385825 C50.3780488,46.5663585 50.8536585,47.5589047 51,49.7822084 C47.9268293,50.695351 42.4756098,48.6308547 42.2926829,45.5738122 C42.2744629,45.3227558 42.2744629,45.0705334 42.2926829,44.819477 L42.2926829,44.819477 L42.2926829,44.819477 C42.3963846,43.9332106 42.2958189,43.0328693 42,42.1991548 C42.4756098,41.5242233 45.695122,42.5961733 50.3780488,44.9385825 Z" id="Path" fill="#E7A376"></path>
                    <path d="M54.690733,47 C53.4026789,46.8185924 52.132593,46.5276033 50.8944053,46.1302242 C50.0592132,46.1302242 43.3017499,44.1259583 42.8461906,42.3485903 C42.9065613,42.0108997 42.9065613,41.6652398 42.8461906,41.3275492 C41.9977066,39.6446566 41.3967884,37.8488795 41.0619166,35.9954454 C40.6359781,32.5865366 42.4376281,29.2861568 45.5415833,27.7892999 C48.3223328,26.5275649 51.5609003,26.7917058 54.0985757,28.4872171 C56.6362511,30.1827284 58.1103787,33.067307 57.9935381,36.1088944 C57.9935381,37.3568336 56.892603,37.7728134 56.7027867,38.7938545 C56.7027867,39.0207525 56.7027867,39.2854669 56.9685296,39.7770793 C57.2342725,40.2686917 55.6018516,46.773102 54.690733,47 Z" id="Path" fill="#E7A376"></path>
                    <path d="M54.5581789,47 C53.4095908,46.9039868 52.2801409,46.6497168 51.2024863,46.2445421 C50.9355562,46.2445421 50.5923604,46.2445421 50.134766,46.2445421 C47.6942623,45.5646299 43.0420521,43.8270766 42.8513877,42.4672523 C42.9314794,42.1191686 42.9314794,41.7576949 42.8513877,41.4096112 C41.9991133,39.7286518 41.3955105,37.9349376 41.0591428,36.0836327 C40.6433053,32.6809014 42.4494412,29.3908024 45.5588215,27.886914 C47.9494238,26.7016146 50.7647743,26.7045143 53.1528829,27.8947357 C55.5409916,29.0849571 57.2212134,31.322628 57.6850743,33.9305775 C58.1049752,35.2199139 58.1049752,36.6073953 57.6850743,37.8967318 C57.2830133,38.5129697 57.0955233,39.2425844 57.1512141,39.9742411 C57.0368155,40.6541533 55.5115007,46.8111355 54.5581789,47 Z" id="Path" fill="#E7A376"></path>
                    <path d="M51.5234809,41.5152817 C50.0034809,39.4592979 46.6034809,44.1636676 49.8034809,45 C49.4248807,44.3464627 49.3979262,43.5804147 49.7298673,42.9079024 C50.0618083,42.2353901 50.7185626,41.7254644 51.5234809,41.5152817 Z" id="Path" fill="#DA9569"></path>
                    <path d="M51.8945093,42.068193 C52.4145093,41.3560643 52.2145093,41 51.8945093,41 C51.1924169,41.125187 50.5875965,41.5629003 50.2545093,42.1868811 C49.4145093,43.4133249 49.6945093,45.3123346 51.1745093,44.9562703 C50.0145093,44.9562703 50.4545093,43.4133249 51.1745093,42.6616335 C51.8945093,41.9099422 51.8145093,41.8308168 51.8945093,42.068193 Z" id="Path" fill="#F0B186"></path>
                    <path d="M51.2755556,42.3042644 C51.2755556,42.9842644 51.4755556,43.3842644 51.2755556,43.5442644 C51.0755556,43.7042644 50.9155556,43.7842644 50.6355556,43.5442644 C50.7028472,43.0705524 50.9284055,42.6335333 51.2755556,42.3042644 Z" id="Path" fill="#DA9569"></path>
                    <path d="M55.1860002,33.7657942 L55.1860002,33.7657942 C56.2581109,33.5721822 57.1722823,32.8984385 57.6507269,31.9492925 C58.1291714,31.0001464 58.1153962,29.8876697 57.613587,28.9499085 C54.49996,26.3278148 50.2444558,25.3756388 46.2587457,26.4092443 C44.2796752,26.8221768 42.5974048,28.0754386 41.6776545,29.8220768 C40.4312665,31.5609662 39.8497396,33.6662447 40.0331603,35.7755733 C40.4392078,37.860444 41.0826636,39.895292 41.9517369,41.842831 C42.2976417,42.660181 43.1149023,43.1978025 44.026932,43.207964 C46.7286012,43.207964 47.9423945,40.8569016 49.8609712,40.0605741 C50.8789914,39.6434501 51.8187024,39.6813705 51.6620839,41.5015477 C51.6620839,42.259955 51.3488469,43.0562825 51.2313831,43.7767694 C51.1139192,44.4972562 50.6832183,45.0281413 51.5446201,45.634867 C52.4136664,46.2615823 53.3965163,46.724653 54.4420623,47 C54.7161447,47 55.0293817,45.5590263 55.2643095,44.5351766 C55.2643095,44.5351766 55.0685363,44.8764598 55.0293817,44.8385395 L54.6769901,44.8385395 C54.7770164,44.4098241 54.9489687,43.9998994 55.1860002,43.6250879 C55.3089426,43.2846397 55.5424824,42.9919389 55.8516288,42.79084 C55.9934165,42.5469455 56.0738985,42.2741381 56.0865566,41.9945124 C55.4522348,42.2060559 54.9218714,42.6385989 54.5986808,43.207964 C54.3444876,43.6289323 54.1346089,44.0735694 53.9722068,44.5351766 C53.4240421,44.2697341 52.9150319,44.0801323 52.7584134,43.7767694 C52.5037594,42.8705202 52.5037594,41.9148323 52.7584134,41.0085831 C52.8641589,39.48046 53.6864504,38.0833186 54.9902271,37.216547 C55.420928,36.8752638 55.6558557,36.0030955 55.3817733,33.841635 L55.1860002,33.7657942 Z" id="Path" fill="#6A3144"></path>
                    <path d="M56.7439132,32.8761971 C55.7174538,33.6587421 52.9422118,30.4894346 48,30.1372893 C49.7867996,27.2418726 50.5471399,26.694091 52.1818715,26.224564 C54.4017605,25.5084591 56.799011,26.5516626 57.8464066,28.6895809 C58.2559574,30.1875933 57.8323905,31.7960493 56.7439132,32.8761971 Z" id="Path" fill="#6A3144"></path>
                    <path d="M74.9751581,69.3201728 C74.9751581,68.7469716 74.9751581,68.1737704 74.9751581,67.5241424 C74.9751581,63.7028013 72.1021108,58.7732712 70.6655871,53.9583814 C70.4077297,53.2835761 70.2344221,52.5772263 70.149912,51.8566437 C70.4671407,50.6824037 70.6767967,49.4797133 70.776089,48.2645831 C70.5477623,46.7417455 69.9663067,45.2992348 69.0817277,44.0611078 C68.1608792,42.9529189 65.0299943,39.7812057 64.2196476,41.5008092 C63.9267841,43.8730897 63.9267841,46.2744366 64.2196476,48.6467172 C64.587987,50.4427475 65.3983337,51.6655767 65.6561713,52.8501924 C66.7611895,57.0918811 65.4351677,63.6263745 67.4610344,67.9062766 C68.4187168,69.893374 68.308215,72.7211664 70.0762441,72.9122335 C71.3631985,73.1665543 72.6943919,72.8627238 73.7596381,72.0715384 C74.6436069,71.4754753 75.116974,70.4039949 74.9751581,69.3201728 L74.9751581,69.3201728 Z" id="Path" fill="#F0B186"></path>
                    <path d="M69.0127592,62.5258962 C69.3692904,62.2898622 69.7946851,62.1826625 70.2194644,62.2218056 C72.3635207,62.8237495 74.0551962,64.4859749 74.7068993,66.6311195 C76.2152808,71.3445239 71.5392982,74.2333847 68.9373401,72.4848637 C67.5674401,72.0010412 66.291446,71.2807659 65.1663864,70.3562294 C61.6593994,67.6954366 51.5532433,59.8651034 53.1747534,56.1019821 C53.6208067,54.6853631 54.7394118,53.5869812 56.1559917,53.1746416 C57.5725717,52.762302 59.0998635,53.0905133 60.2264369,54.0493705 C63.5074282,56.4789239 66.4609783,59.3283349 69.0127592,62.5258962 Z" id="Path" fill="#1B8DA9"></path>
                </g>
            </g>
        </g>
    </g>
</svg>