<?xml version="1.0" encoding="UTF-8"?>
<svg width="22px" height="22px" viewBox="0 0 22 22" version="1.1" xmlns="http://www.w3.org/2000/svg" xmlns:xlink="http://www.w3.org/1999/xlink">
    <!-- Generator: Sketch 53.2 (72643) - https://sketchapp.com -->
    <title>Linked_Icon</title>
    <desc>Created with Sketch.</desc>
    <g id="Fitness-dla-umyslu" stroke="none" stroke-width="1" fill="none" fill-rule="evenodd" opacity="0.562443388">
        <g id="mmm_fitness_menu_1024px" transform="translate(-101.000000, -449.000000)" fill="#3A3939" fill-rule="nonzero">
            <g id="section_menu" transform="translate(0.000000, 91.000000)">
                <g id="section_menu_Social_Media" transform="translate(101.000000, 358.000000)">
                    <path d="M18.7781172,3.22201172 C16.7862148,1.23023828 14.0393516,0 11.0001289,0 C7.96064844,0 5.21382813,1.23023828 3.22235547,3.22201172 C1.23023828,5.21369922 0,7.96064844 0,10.9999141 C0,14.0392656 1.23023828,16.7862148 3.22235547,18.7777734 C5.21382813,20.7696758 7.96064844,22 11.0001289,22 C14.0393516,22 16.7862148,20.7696758 18.7781172,18.7777734 C20.7697617,16.7862148 22,14.0392656 22,10.9999141 C22,7.96064844 20.7697617,5.21369922 18.7781172,3.22201172 Z M7.19335547,6.03590625 C7.83285937,6.03590625 8.35050391,6.55363672 8.35050391,7.19326953 C8.35050391,7.83290234 7.83285937,8.35054688 7.19335547,8.35054688 C6.55380859,8.35054688 6.03599219,7.83290234 6.03599219,7.19326953 C6.03599219,6.55363672 6.55380859,6.03590625 7.19335547,6.03590625 Z M6.03603516,11.1034688 L6.03603516,9.34325391 L8.35050391,9.34325391 L8.35050391,10.7075547 L8.35050391,15.9639219 L6.03603516,15.9639219 L6.03603516,11.1034688 Z M15.9093516,11.3775664 C15.9456172,11.6700117 15.9640078,11.9866484 15.9640508,12.3277344 L15.9640508,15.9639219 L13.978207,15.9639219 L13.978207,12.7418672 C13.978207,11.9683867 13.8992734,10.9817813 12.8336484,10.9817813 C11.7735234,10.9817813 11.6029805,11.8160195 11.6029805,12.6811523 L11.6029805,15.9639219 L9.67205078,15.9639219 L9.67205078,10.6161172 L9.67205078,9.34325391 L11.5177305,9.34325391 L11.5177305,10.2386797 L11.5483242,10.2386797 C11.8283945,9.70878906 12.4983203,9.34325391 13.4911992,9.34325391 C15.1845977,9.34325391 15.7568555,10.1228359 15.9093516,11.3775664 Z" id="Linked_Icon"></path>
                </g>
            </g>
        </g>
    </g>
</svg>