<?xml version="1.0" encoding="UTF-8"?>
<svg width="22px" height="22px" viewBox="0 0 22 22" version="1.1" xmlns="http://www.w3.org/2000/svg" xmlns:xlink="http://www.w3.org/1999/xlink">
    <!-- Generator: Sketch 53.2 (72643) - https://sketchapp.com -->
    <title>Twitter_Icon</title>
    <desc>Created with Sketch.</desc>
    <g id="Fitness-dla-umyslu" stroke="none" stroke-width="1" fill="none" fill-rule="evenodd" opacity="0.562443388">
        <g id="mmm_fitness_menu_1024px" transform="translate(-172.000000, -449.000000)">
            <g id="section_menu" transform="translate(0.000000, 91.000000)">
                <g id="section_menu_Social_Media" transform="translate(101.000000, 358.000000)">
                    <g id="Twitter_Icon" transform="translate(71.000000, 0.000000)">
                        <path d="M18.4663477,3.22106641 C16.5075165,1.23599609 13.8062589,0 10.8174959,0 C7.82847931,0 5.12726393,1.23599609 3.16885531,3.22106641 C1.20981287,5.21232422 0,7.96447266 0,11.0031367 C0,14.0352695 1.20981287,16.7878047 3.16885531,18.7787187 C5.12726393,20.763875 7.82847931,22 10.8174959,22 C13.8062589,22 16.5075165,20.763875 18.4663477,18.7787187 C20.4249253,16.7878047 21.6347382,14.0353125 21.6347382,11.0031367 C21.6347382,7.96447266 20.4249253,5.21232422 18.4663477,3.22106641 Z" id="Shape" fill="#3A3939" fill-rule="nonzero"></path>
                        <path d="M16.339805,7.57474609 C15.938337,7.75151953 15.5014167,7.87329297 15.0401996,7.93400781 C15.5131214,7.64796484 15.8723764,7.20942578 16.0405104,6.67360547 C15.6031676,6.93537109 15.1120759,7.12417578 14.59711,7.22764453 C14.1892191,6.78339063 13.5967991,6.50925 12.9377847,6.50925 C11.691928,6.50925 10.6734474,7.52619141 10.6734474,8.77430469 C10.6734474,8.95700781 10.7037867,9.12759375 10.739577,9.29207813 C8.85287571,9.20068359 7.18159218,8.29941406 6.06736091,6.92325391 C5.87581742,7.26429688 5.75615027,7.64796484 5.75615027,8.06196875 C5.75615027,8.85358203 6.16340732,9.54769922 6.76225011,9.94967188 C6.39103688,9.94361328 6.04348664,9.83992969 5.73823401,9.66947266 C5.73823401,9.68171875 5.73823401,9.68782031 5.73823401,9.6999375 C5.73823401,9.99216797 5.79219409,10.26025 5.89377594,10.5158281 C6.16961885,11.2284648 6.7985052,11.7641563 7.55927048,11.9164375 C7.36126192,11.9712656 7.16971843,12.0015156 6.96021642,12.0015156 C6.81646372,12.0015156 6.67262652,11.9832969 6.53462055,11.952918 C6.82837973,12.8541875 7.66081009,13.5116094 8.64941621,13.5361445 C7.87052338,14.1450117 6.90025608,14.5042734 5.84002714,14.5042734 C5.65423037,14.5042734 5.48077217,14.4919414 5.29518668,14.4738086 C6.30128652,15.1132695 7.49314086,15.49075 8.76908335,15.49075 C12.3088984,15.49075 14.4951901,13.0001094 15.0639471,10.4122305 C15.1661205,9.94962891 15.2137,9.49287109 15.2137,9.04234375 C15.2137,8.94484766 15.2137,8.84150781 15.2137,8.74998438 C15.6510006,8.42728906 16.0405104,8.02531641 16.339805,7.57474609 L16.339805,7.57474609 Z" id="Shape" fill="#F5F5F5"></path>
                    </g>
                </g>
            </g>
        </g>
    </g>
</svg>