<?xml version="1.0" encoding="UTF-8"?>
<svg width="22px" height="22px" viewBox="0 0 22 22" version="1.1" xmlns="http://www.w3.org/2000/svg" xmlns:xlink="http://www.w3.org/1999/xlink">
    <!-- Generator: Sketch 53.2 (72643) - https://sketchapp.com -->
    <title>Instagram_Icon</title>
    <desc>Created with Sketch.</desc>
    <g id="Fitness-dla-umyslu" stroke="none" stroke-width="1" fill="none" fill-rule="evenodd" opacity="0.562443388">
        <g id="mmm_treningi_1440px" transform="translate(-269.000000, -1130.000000)">
            <g id="footer" transform="translate(0.000000, 934.000000)">
                <g id="Section_6_Social_Media" transform="translate(163.000000, 196.000000)">
                    <g id="Instagram_Icon" transform="translate(106.000000, 0.000000)">
                        <path d="M9.26926352,5.86666667 L12.3654747,5.86666667 C14.2984713,5.86666667 15.8654747,7.43367004 15.8654747,9.36666667 L15.8654747,12.6333333 C15.8654747,14.56633 14.2984713,16.1333333 12.3654747,16.1333333 L9.26926352,16.1333333 C7.33626689,16.1333333 5.76926352,14.56633 5.76926352,12.6333333 L5.76926352,9.36666667 C5.76926352,7.43367004 7.33626689,5.86666667 9.26926352,5.86666667 Z" id="Path" fill="#FFFFFF"></path>
                        <path d="M18.4661364,3.22201172 C16.5135168,1.23015234 13.8060476,0 10.8172846,0 C7.83443731,0 5.12739069,1.23015234 3.16864404,3.22201172 C1.20993964,5.21387109 0,7.96073437 0,11 C0,14.0392656 1.20993964,16.7862148 3.16864404,18.7779453 C5.12739069,20.7697187 7.83443731,22 10.8172846,22 C13.8060476,22 16.5135168,20.7697187 18.4661364,18.7779453 C20.4249253,16.7862148 21.6347382,14.0392656 21.6347382,11 C21.6347382,7.96073437 20.4249253,5.21387109 18.4661364,3.22201172 Z" id="Shape" fill="#FFFFFF" fill-rule="nonzero"></path>
                        <path d="M8.23880469,10.9971804 C8.23880469,9.55156761 9.39286978,8.37235292 10.81438,8.37235292 C12.2416718,8.37235292 13.3957368,9.55152762 13.3957368,10.9971804 C13.3957368,12.4483524 12.2416718,13.622008 10.81438,13.622008 C9.39283045,13.622008 8.23880469,12.4483524 8.23880469,10.9971804 L8.23880469,10.9971804 Z M13.4795101,5.86666667 L8.15518876,5.86666667 C6.84506157,5.86666667 5.76926352,6.95501564 5.76926352,8.29312537 L5.76926352,13.7071146 C5.76926352,15.0391453 6.8451009,16.1333333 8.15518876,16.1333333 L13.4795101,16.1333333 C14.7952222,16.1333333 15.8654747,15.0391453 15.8654747,13.7071146 L15.8654747,8.29312537 C15.8654747,6.95501564 14.7952222,5.86666667 13.4795101,5.86666667 L13.4795101,5.86666667 Z M14.0088941,7.23861108 C13.7189915,7.23861108 13.485095,7.47665367 13.485095,7.77136736 C13.485095,8.06624102 13.7189915,8.30432361 14.0088941,8.30432361 C14.2987968,8.30432361 14.5330866,8.06624102 14.5330866,7.77136736 C14.5330866,7.47665367 14.2987968,7.23861108 14.0088941,7.23861108 L14.0088941,7.23861108 Z" id="Shape" fill="#464646"></path>
                    </g>
                </g>
            </g>
        </g>
    </g>
</svg>