<?xml version="1.0" encoding="UTF-8"?>
<svg width="22px" height="22px" viewBox="0 0 22 22" version="1.1" xmlns="http://www.w3.org/2000/svg" xmlns:xlink="http://www.w3.org/1999/xlink">
    <!-- Generator: Sketch 53.2 (72643) - https://sketchapp.com -->
    <title>np_mail_933334_9B9B9B</title>
    <desc>Created with Sketch.</desc>
    <g id="Fitness-dla-umyslu" stroke="none" stroke-width="1" fill="none" fill-rule="evenodd">
        <g id="mmm_treningi_1440px" transform="translate(-163.000000, -1078.000000)" fill="#9B9B9B" fill-rule="nonzero">
            <g id="footer" transform="translate(0.000000, 934.000000)">
                <g id="np_mail_933334_9B9B9B" transform="translate(163.000000, 144.000000)">
                    <path d="M11,0 C17.0698478,0 22,4.93015217 22,11 C22,17.0698478 17.0698478,22 11,22 C4.93015217,22 0,17.0698478 0,11 C0,4.93015217 4.93015217,0 11,0 Z M5.26086957,5.97826087 C4.46595217,5.97826087 3.82608696,6.61812609 3.82608696,7.41304348 L3.82608696,14.5869565 C3.82608696,15.3818739 4.46595217,16.0217391 5.26086957,16.0217391 L16.7391304,16.0217391 C17.5340478,16.0217391 18.173913,15.3818739 18.173913,14.5869565 L18.173913,7.41304348 C18.173913,6.61812609 17.5340478,5.97826087 16.7391304,5.97826087 L5.26086957,5.97826087 Z M6.4042,7.89130435 C6.5489863,7.87729274 6.69189783,7.92960348 6.79278696,8.03328804 L10.6040478,11.8144185 C10.7796604,11.9881611 11.2046717,11.9890961 11.3812217,11.8144185 L15.2073087,8.03328804 C15.2969826,7.94081152 15.4193504,7.88850174 15.5482609,7.88756674 C15.6771665,7.88756674 15.8004717,7.93800891 15.8910783,8.02955043 C15.9807522,8.12109196 16.0311943,8.24532739 16.0283917,8.37330043 C16.0265234,8.50220609 15.9732793,8.6245787 15.8798702,8.71332 L13.4660876,11.0971635 L15.864805,13.2792287 C16.0609661,13.4567089 16.0759117,13.7593548 15.8984315,13.9555135 C15.7209513,14.1516722 15.4183054,14.1666202 15.2221467,13.98914 L12.7858859,11.7771835 L12.0610337,12.4945748 C11.4744228,13.0746574 10.5179011,13.0765226 9.93129022,12.4945748 L9.20643804,11.7771835 L6.77782935,13.98914 C6.58166826,14.1666202 6.27902717,14.1516746 6.10154457,13.9555135 C5.92406196,13.7593524 5.93901,13.4567113 6.13517109,13.2792287 L8.52647543,11.1046243 L6.120345,8.71332 C5.98489913,8.58347935 5.93726196,8.38731348 5.99891217,8.21076348 C6.05962978,8.03421826 6.21842674,7.90905261 6.40431,7.89130913 L6.4042,7.89130435 Z" id="Shape"></path>
                </g>
            </g>
        </g>
    </g>
</svg>