<?xml version="1.0" encoding="UTF-8"?>
<svg width="18px" height="24px" viewBox="0 0 18 24" version="1.1" xmlns="http://www.w3.org/2000/svg" xmlns:xlink="http://www.w3.org/1999/xlink">
    <!-- Generator: Sketch 53.2 (72643) - https://sketchapp.com -->
    <title>np_place_3090813_FFD26E</title>
    <desc>Created with Sketch.</desc>
    <g id="Fitness-dla-umyslu" stroke="none" stroke-width="1" fill="none" fill-rule="evenodd">
        <g id="mmm_treningi_1440px" transform="translate(-335.000000, -718.000000)" fill="#FFD26E" fill-rule="nonzero">
            <g id="np_place_3090813_FFD26E" transform="translate(335.000000, 718.000000)">
                <path d="M8.99981673,24 C8.79731902,24 8.60301087,23.9269993 8.45267705,23.7950012 C8.10700353,23.4910024 0,16.2699117 0,8.80011793 C0,5.65619467 1.7150936,2.75111845 4.50006545,1.17902882 C7.28503731,-0.393060806 10.7150151,-0.392958407 13.4999345,1.17902882 C16.284854,2.75101605 18,5.65593867 18,8.80011793 C18,16.2701677 9.89291792,23.4911304 9.54732295,23.7950012 C9.3969839,23.9269993 9.20267051,24 9.00018327,24 L8.99981673,24 Z M8.99981673,1.60009079 C7.04746695,1.60209066 5.1760178,2.36109891 3.7952088,3.71108384 C2.41455688,5.06106877 1.63830344,6.89110295 1.63626129,8.80008721 C1.63626129,14.5060481 7.20688572,20.3579284 8.99979055,22.0920653 C10.7915958,20.3560852 16.3633198,14.4981121 16.3633198,8.80008721 C16.3612745,6.89110295 15.5850242,5.06122237 14.2043723,3.71108384 C12.8237204,2.36109891 10.9521142,1.60208759 8.99976437,1.60009079 L8.99981673,1.60009079 Z" id="Shape"></path>
                <path d="M9,13 C7.93901479,13 6.9220101,12.5790107 6.1719861,11.8280139 C5.42098931,11.0780155 5,10.0610364 5,9 C5,7.93896359 5.42098931,6.9220101 6.1719861,6.1719861 C6.9219845,5.42098931 7.93896359,5 9,5 C10.0610364,5 11.0779899,5.42098931 11.8280139,6.1719861 C12.5790107,6.9219845 13,7.93896359 13,9 C12.9990001,10.0599868 12.5770139,11.0769915 11.8270155,11.8269899 C11.0770171,12.5769883 10.060038,12.998976 9.0000256,12.9999744 L9,13 Z M9,6.60004096 C8.02899821,6.60004096 7.15402141,7.18504842 6.78300299,8.08204107 C6.41101177,8.97803534 6.61700341,10.0110399 7.30298686,10.6970643 C7.98898567,11.3830631 9.02196466,11.589065 9.91801012,11.2170482 C10.8150028,10.8460554 11.4000102,9.97105299 11.4000102,9.0000512 C11.3990103,7.67505488 10.3250219,6.60106495 9.0000256,6.60006656 L9,6.60004096 Z" id="Shape"></path>
            </g>
        </g>
    </g>
</svg>