<?xml version="1.0" encoding="UTF-8"?>
<svg width="30px" height="27px" viewBox="0 0 30 27" version="1.1" xmlns="http://www.w3.org/2000/svg" xmlns:xlink="http://www.w3.org/1999/xlink">
    <!-- Generator: Sketch 53.2 (72643) - https://sketchapp.com -->
    <title>np_time_2496474_FFD26E</title>
    <desc>Created with Sketch.</desc>
    <g id="Fitness-dla-umyslu" stroke="none" stroke-width="1" fill="none" fill-rule="evenodd">
        <g id="mmm_treningi_1440px" transform="translate(-205.000000, -718.000000)" fill="#FFD26E" fill-rule="nonzero" stroke="#FFFFFF" stroke-width="0.8">
            <g id="np_time_2496474_FFD26E" transform="translate(206.000000, 719.000000)">
                <path d="M15.2995353,0.00023780799 C12.530172,0.00023780799 9.90690264,0.870267041 7.69692805,2.49478562 C7.16629842,2.90033525 7.04890457,3.62535961 7.46096759,4.14760916 C7.87303061,4.66985871 8.60968292,4.78539859 9.14031255,4.37984316 C10.93823,3.07479931 13.0596288,2.34977495 15.2981858,2.34977495 C20.9854817,2.34977495 25.5813449,6.90263793 25.5813449,12.470535 C25.5813449,18.0680131 20.9554261,22.5912951 15.2981858,22.5912951 C9.61088981,22.5912951 5.01502664,18.0384321 5.01502664,12.470535 L5.01502664,12.0649854 L6.66561247,12.0649854 C7.37233287,12.0649854 7.81432779,11.310496 7.46096759,10.7021716 L4.60296951,5.97472275 C4.24960931,5.39470326 3.36561947,5.39470326 3.01225927,5.97472275 L0.1243234,10.7021716 C-0.229036804,11.3116561 0.212952221,12.0649854 0.919678523,12.0649854 L2.57026435,12.0649854 L2.57026435,12.5 C2.57026435,19.4025219 8.2575603,25 15.270841,25 C22.2841217,25 28,19.4025219 28,12.5 C28,5.59747808 22.312704,0 15.2994233,0 L15.2995353,0.00023780799 Z" id="Path"></path>
                <path d="M15.2988492,5.00017474 C14.5702574,5.00017474 14,5.52463207 14,6.19470728 L14.0012369,12.8054675 C14.0012369,13.4755427 14.5714943,14 15.3000861,14 L19.7011508,14 C20.4297426,14 21,13.4755427 21,12.8054675 C21,12.1353923 20.4297426,11.6109349 19.7011508,11.6109349 L16.597542,11.6109349 L16.597542,6.19453253 C16.597542,5.55404688 15.9963778,5 15.2986928,5 L15.2988492,5.00017474 Z" id="Path"></path>
            </g>
        </g>
    </g>
</svg>