<?xml version="1.0" encoding="UTF-8"?>
<svg width="22px" height="22px" viewBox="0 0 22 22" version="1.1" xmlns="http://www.w3.org/2000/svg" xmlns:xlink="http://www.w3.org/1999/xlink">
    <!-- Generator: Sketch 53.2 (72643) - https://sketchapp.com -->
    <title>Facebook_Icon</title>
    <desc>Created with Sketch.</desc>
    <g id="Fitness-dla-umyslu" stroke="none" stroke-width="1" fill="none" fill-rule="evenodd" opacity="0.562443388">
        <g id="mmm_kontakt_1440px" transform="translate(-198.000000, -894.000000)">
            <g id="footer" transform="translate(0.000000, 698.000000)">
                <g id="Section_6_Social_Media" transform="translate(163.000000, 196.000000)">
                    <g id="Facebook_Icon" transform="translate(35.000000, 0.000000)">
                        <path d="M18.4663054,3.22201172 C16.5076855,1.23015234 13.8061744,0 10.8173691,0 C7.82856382,0 5.12717942,1.23015234 3.16855953,3.22201172 C1.20993964,5.21387109 0,7.96073437 0,11 C0,14.0392656 1.20993964,16.7862148 3.16855953,18.7779453 C5.12717942,20.7697187 7.82856382,22 10.8173691,22 C13.8061744,22 16.5076855,20.7697187 18.4663054,18.7779453 C20.4248831,16.7862148 21.6347382,14.0392656 21.6347382,11 C21.6347382,7.96073437 20.4248831,5.21387109 18.4663054,3.22201172 Z" id="Shape" fill="#FFFFFF" fill-rule="nonzero"></path>
                        <path d="M11.6438414,8.75239062 L11.6438414,7.85099219 C11.6438414,7.41855469 11.9254311,7.31504297 12.1293976,7.31504297 C12.3269414,7.31504297 13.369085,7.31504297 13.369085,7.31504297 L13.369085,5.39025781 L11.661969,5.39025781 C9.76330944,5.39025781 9.33813613,6.81544531 9.33813613,7.74133594 L9.33813613,8.75234766 L8.23582086,8.75234766 L8.23582086,10.1105898 L8.23582086,11 L9.34988311,11 C9.34988311,13.552043 9.34988311,16.6158008 9.34988311,16.6158008 L11.5602181,16.6158008 C11.5602181,16.6158008 11.5602181,13.509375 11.5602181,11 L13.1952043,11 L13.2673342,10.1168203 L13.3991709,8.75239062 L11.6438414,8.75239062 Z" id="Shape" fill="#494949"></path>
                    </g>
                </g>
            </g>
        </g>
    </g>
</svg>