<?xml version="1.0" encoding="UTF-8"?>
<svg width="22px" height="22px" viewBox="0 0 22 22" version="1.1" xmlns="http://www.w3.org/2000/svg" xmlns:xlink="http://www.w3.org/1999/xlink">
    <!-- Generator: Sketch 53.2 (72643) - https://sketchapp.com -->
    <title>np_phone_2828705_9B9B9B</title>
    <desc>Created with Sketch.</desc>
    <g id="Fitness-dla-umyslu" stroke="none" stroke-width="1" fill="none" fill-rule="evenodd">
        <g id="mmm_kontakt_1440px" transform="translate(-163.000000, -811.000000)" fill="#9B9B9B" fill-rule="nonzero">
            <g id="footer" transform="translate(0.000000, 698.000000)">
                <g id="np_phone_2828705_9B9B9B" transform="translate(163.000000, 113.000000)">
                    <path d="M11,0 C17.06892,0 22,4.93108 22,11 C22,17.06892 17.06892,22 11,22 C4.93108,22 0,17.06892 0,11 C0,4.93108 4.93108,0 11,0 Z M7.73784,5.76554 C7.282374,5.841165 6.296664,6.903358 6.144556,7.358824 C5.916812,8.193284 6.600022,10.165584 7.05463,10.848684 C8.42017,13.200704 9.48233,14.186524 11.68233,15.552064 C12.213432,15.855422 13.199978,16.234416 13.88233,16.310888 C14.337796,16.310888 14.641154,16.083144 14.868898,15.855422 C15.475614,15.248706 16.310074,14.945348 15.703358,14.262138 L14.337818,12.74449 C14.262193,12.5923798 13.958824,12.441132 13.731102,12.5923798 C13.503358,12.6680048 12.744534,13.4268398 12.51767,13.6545618 C11.607596,14.0335558 8.49673,10.4680818 8.49673,9.4822618 C8.49673,9.0267958 9.406804,8.6478018 9.710162,8.1167218 C9.8622722,7.9646116 9.8622722,7.8133638 9.785787,7.5856198 C9.6336768,7.3578758 8.495861,6.0679718 8.268139,5.8410858 C8.1160288,5.7654608 7.889145,5.6889756 7.737037,5.7654608 L7.73784,5.76554 Z" id="Shape"></path>
                </g>
            </g>
        </g>
    </g>
</svg>